REM DIRINDEX 1\2,1\3,1\4,1\5
REM DIRNAME cjc004,folder01,folder02,folder03,folder04
TITLE ""
FILE "1Q_t_0080-0089.mp3" MP3
  TRACK 01 AUDIO
    TITLE "3:cjc004_1140"
    INDEX 01 00:00:00
  TRACK 02 AUDIO
    TITLE "0:"
    INDEX 01 00:01:19
  TRACK 03 AUDIO
    TITLE "4:cjc004_1141"
    INDEX 01 00:01:58
  TRACK 04 AUDIO
    TITLE "0:"
    INDEX 01 00:03:10
  TRACK 05 AUDIO
    TITLE "5:cjc004_1142"
    INDEX 01 00:03:43
  TRACK 06 AUDIO
    TITLE "0:"
    INDEX 01 00:08:68
  TRACK 07 AUDIO
    TITLE "3:cjc004_1143"
    INDEX 01 00:09:49
  TRACK 08 AUDIO
    TITLE "0:"
    INDEX 01 00:10:55
  TRACK 09 AUDIO
    TITLE "4:cjc004_1144"
    INDEX 01 00:11:11
  TRACK 10 AUDIO
    TITLE "0:"
    INDEX 01 00:12:67
  TRACK 11 AUDIO
    TITLE "5:cjc004_1145"
    INDEX 01 00:13:30
  TRACK 12 AUDIO
    TITLE "0:"
    INDEX 01 00:18:44
  TRACK 13 AUDIO
    TITLE "3:cjc004_1146"
    INDEX 01 00:19:24
  TRACK 14 AUDIO
    TITLE "0:"
    INDEX 01 00:20:43
  TRACK 15 AUDIO
    TITLE "4:cjc004_1147"
    INDEX 01 00:20:61
  TRACK 16 AUDIO
    TITLE "0:"
    INDEX 01 00:22:17
  TRACK 17 AUDIO
    TITLE "5:cjc004_1148"
    INDEX 01 00:22:50
  TRACK 18 AUDIO
    TITLE "0:"
    INDEX 01 00:27:24
  TRACK 19 AUDIO
    TITLE "3:cjc004_1149"
    INDEX 01 00:28:08
  TRACK 20 AUDIO
    TITLE "0:"
    INDEX 01 00:29:23
  TRACK 21 AUDIO
    TITLE "4:cjc004_1150"
    INDEX 01 00:29:56
  TRACK 22 AUDIO
    TITLE "0:"
    INDEX 01 00:31:57
  TRACK 23 AUDIO
    TITLE "5:cjc004_1151"
    INDEX 01 00:32:09
  TRACK 24 AUDIO
    TITLE "0:"
    INDEX 01 00:36:56
  TRACK 25 AUDIO
    TITLE "3:cjc004_1152"
    INDEX 01 00:37:44
  TRACK 26 AUDIO
    TITLE "0:"
    INDEX 01 00:38:63
  TRACK 27 AUDIO
    TITLE "4:cjc004_1153"
    INDEX 01 00:39:23
  TRACK 28 AUDIO
    TITLE "0:"
    INDEX 01 00:40:44
  TRACK 29 AUDIO
    TITLE "5:cjc004_1154"
    INDEX 01 00:41:02
  TRACK 30 AUDIO
    TITLE "0:"
    INDEX 01 00:46:29
  TRACK 31 AUDIO
    TITLE "3:cjc004_1155"
    INDEX 01 00:47:11
  TRACK 32 AUDIO
    TITLE "0:"
    INDEX 01 00:48:30
  TRACK 33 AUDIO
    TITLE "4:cjc004_1156"
    INDEX 01 00:48:55
  TRACK 34 AUDIO
    TITLE "0:"
    INDEX 01 00:50:11
  TRACK 35 AUDIO
    TITLE "5:cjc004_1157"
    INDEX 01 00:50:41
  TRACK 36 AUDIO
    TITLE "0:"
    INDEX 01 00:54:52
  TRACK 37 AUDIO
    TITLE "3:cjc004_1158"
    INDEX 01 00:55:26
  TRACK 38 AUDIO
    TITLE "0:"
    INDEX 01 00:56:63
  TRACK 39 AUDIO
    TITLE "4:cjc004_1159"
    INDEX 01 00:57:19
  TRACK 40 AUDIO
    TITLE "0:"
    INDEX 01 00:58:48
  TRACK 41 AUDIO
    TITLE "5:cjc004_1160"
    INDEX 01 00:58:73
  TRACK 42 AUDIO
    TITLE "0:"
    INDEX 01 01:04:25
  TRACK 43 AUDIO
    TITLE "3:cjc004_1161"
    INDEX 01 01:05:11
  TRACK 44 AUDIO
    TITLE "0:"
    INDEX 01 01:06:32
  TRACK 45 AUDIO
    TITLE "4:cjc004_1162"
    INDEX 01 01:06:61
  TRACK 46 AUDIO
    TITLE "0:"
    INDEX 01 01:08:07
  TRACK 47 AUDIO
    TITLE "5:cjc004_1163"
    INDEX 01 01:08:35
  TRACK 48 AUDIO
    TITLE "0:"
    INDEX 01 01:13:28
  TRACK 49 AUDIO
    TITLE "3:cjc004_1164"
    INDEX 01 01:14:02
  TRACK 50 AUDIO
    TITLE "0:"
    INDEX 01 01:15:21
  TRACK 51 AUDIO
    TITLE "4:cjc004_1165"
    INDEX 01 01:15:58
  TRACK 52 AUDIO
    TITLE "0:"
    INDEX 01 01:17:08
  TRACK 53 AUDIO
    TITLE "5:cjc004_1166"
    INDEX 01 01:17:39
  TRACK 54 AUDIO
    TITLE "0:"
    INDEX 01 01:22:17
  TRACK 55 AUDIO
    TITLE "3:cjc004_1167"
    INDEX 01 01:23:01
  TRACK 56 AUDIO
    TITLE "0:"
    INDEX 01 01:24:30
  TRACK 57 AUDIO
    TITLE "4:cjc004_1168"
    INDEX 01 01:24:57
  TRACK 58 AUDIO
    TITLE "0:"
    INDEX 01 01:26:07
  TRACK 59 AUDIO
    TITLE "5:cjc004_1169"
    INDEX 01 01:26:32
  TRACK 60 AUDIO
    TITLE "0:"
    INDEX 01 01:31:00
